<mxfile host="app.diagrams.net" modified="2022-08-20T13:28:09.812Z" agent="5.0 (Macintosh; Intel Mac OS X 10_15_7) AppleWebKit/537.36 (KHTML, like Gecko) Chrome/104.0.0.0 Safari/537.36" etag="ULzW8vpyxVY2UCaCjNi9" version="20.2.5" type="github">
  <diagram id="6a731a19-8d31-9384-78a2-239565b7b9f0" name="Page-1">
    <mxGraphModel dx="1426" dy="1486" grid="1" gridSize="10" guides="1" tooltips="1" connect="1" arrows="1" fold="1" page="1" pageScale="1" pageWidth="1169" pageHeight="827" background="none" math="0" shadow="0">
      <root>
        <mxCell id="0" />
        <mxCell id="1" parent="0" />
        <mxCell id="6J_XF5Ipo1ecQk5-yDg4-1783" value="Mindmap" style="swimlane;startSize=20;horizontal=1;containerType=tree;" parent="1" vertex="1">
          <mxGeometry x="110" y="-780" width="650" height="400" as="geometry">
            <mxRectangle x="270" y="-630" width="90" height="30" as="alternateBounds" />
          </mxGeometry>
        </mxCell>
        <mxCell id="6J_XF5Ipo1ecQk5-yDg4-1784" value="" style="edgeStyle=entityRelationEdgeStyle;startArrow=none;endArrow=none;segment=10;curved=1;rounded=0;fillColor=#f5f5f5;strokeColor=#666666;" parent="6J_XF5Ipo1ecQk5-yDg4-1783" source="6J_XF5Ipo1ecQk5-yDg4-1788" target="6J_XF5Ipo1ecQk5-yDg4-1789" edge="1">
          <mxGeometry relative="1" as="geometry" />
        </mxCell>
        <mxCell id="6J_XF5Ipo1ecQk5-yDg4-1786" value="" style="edgeStyle=entityRelationEdgeStyle;startArrow=none;endArrow=none;segment=10;curved=1;rounded=0;fillColor=#f5f5f5;strokeColor=#666666;" parent="6J_XF5Ipo1ecQk5-yDg4-1783" source="6J_XF5Ipo1ecQk5-yDg4-1788" target="6J_XF5Ipo1ecQk5-yDg4-1791" edge="1">
          <mxGeometry relative="1" as="geometry" />
        </mxCell>
        <mxCell id="6J_XF5Ipo1ecQk5-yDg4-1788" value="Java Concurrency In Practice" style="ellipse;whiteSpace=wrap;html=1;align=center;treeFolding=1;treeMoving=1;newEdgeStyle={&quot;edgeStyle&quot;:&quot;entityRelationEdgeStyle&quot;,&quot;startArrow&quot;:&quot;none&quot;,&quot;endArrow&quot;:&quot;none&quot;,&quot;segment&quot;:10,&quot;curved&quot;:1};fillColor=#f5f5f5;fontColor=#333333;strokeColor=#666666;" parent="6J_XF5Ipo1ecQk5-yDg4-1783" vertex="1">
          <mxGeometry x="20" y="170" width="180" height="50" as="geometry" />
        </mxCell>
        <mxCell id="6J_XF5Ipo1ecQk5-yDg4-1789" value="Topic" style="whiteSpace=wrap;html=1;rounded=1;arcSize=50;align=center;verticalAlign=middle;strokeWidth=1;autosize=1;spacing=4;treeFolding=1;treeMoving=1;newEdgeStyle={&quot;edgeStyle&quot;:&quot;entityRelationEdgeStyle&quot;,&quot;startArrow&quot;:&quot;none&quot;,&quot;endArrow&quot;:&quot;none&quot;,&quot;segment&quot;:10,&quot;curved&quot;:1};fillColor=#f5f5f5;fontColor=#333333;strokeColor=#666666;" parent="6J_XF5Ipo1ecQk5-yDg4-1783" vertex="1">
          <mxGeometry x="240" y="50" width="80" height="20" as="geometry" />
        </mxCell>
        <mxCell id="6J_XF5Ipo1ecQk5-yDg4-1791" value="Topic" style="whiteSpace=wrap;html=1;rounded=1;arcSize=50;align=center;verticalAlign=middle;strokeWidth=1;autosize=1;spacing=4;treeFolding=1;treeMoving=1;newEdgeStyle={&quot;edgeStyle&quot;:&quot;entityRelationEdgeStyle&quot;,&quot;startArrow&quot;:&quot;none&quot;,&quot;endArrow&quot;:&quot;none&quot;,&quot;segment&quot;:10,&quot;curved&quot;:1};fillColor=#f5f5f5;fontColor=#333333;strokeColor=#666666;" parent="6J_XF5Ipo1ecQk5-yDg4-1783" vertex="1">
          <mxGeometry x="240" y="90" width="80" height="20" as="geometry" />
        </mxCell>
        <mxCell id="OuslxWqH0eKjjEmZ3ydT-1" value="" style="edgeStyle=entityRelationEdgeStyle;startArrow=none;endArrow=none;segment=10;curved=1;rounded=0;fillColor=#f5f5f5;strokeColor=#666666;" edge="1" target="OuslxWqH0eKjjEmZ3ydT-2" source="6J_XF5Ipo1ecQk5-yDg4-1788" parent="6J_XF5Ipo1ecQk5-yDg4-1783">
          <mxGeometry relative="1" as="geometry">
            <mxPoint x="400" y="-475" as="sourcePoint" />
          </mxGeometry>
        </mxCell>
        <mxCell id="OuslxWqH0eKjjEmZ3ydT-2" value="Topic" style="whiteSpace=wrap;html=1;rounded=1;arcSize=50;align=center;verticalAlign=middle;strokeWidth=1;autosize=1;spacing=4;treeFolding=1;treeMoving=1;newEdgeStyle={&quot;edgeStyle&quot;:&quot;entityRelationEdgeStyle&quot;,&quot;startArrow&quot;:&quot;none&quot;,&quot;endArrow&quot;:&quot;none&quot;,&quot;segment&quot;:10,&quot;curved&quot;:1};fillColor=#f5f5f5;fontColor=#333333;strokeColor=#666666;" vertex="1" parent="6J_XF5Ipo1ecQk5-yDg4-1783">
          <mxGeometry x="240" y="130" width="80" height="20" as="geometry" />
        </mxCell>
        <mxCell id="OuslxWqH0eKjjEmZ3ydT-3" value="" style="edgeStyle=entityRelationEdgeStyle;startArrow=none;endArrow=none;segment=10;curved=1;rounded=0;fillColor=#f5f5f5;strokeColor=#666666;" edge="1" target="OuslxWqH0eKjjEmZ3ydT-4" source="6J_XF5Ipo1ecQk5-yDg4-1788" parent="6J_XF5Ipo1ecQk5-yDg4-1783">
          <mxGeometry relative="1" as="geometry">
            <mxPoint x="400" y="-475" as="sourcePoint" />
          </mxGeometry>
        </mxCell>
        <mxCell id="OuslxWqH0eKjjEmZ3ydT-4" value="Topic" style="whiteSpace=wrap;html=1;rounded=1;arcSize=50;align=center;verticalAlign=middle;strokeWidth=1;autosize=1;spacing=4;treeFolding=1;treeMoving=1;newEdgeStyle={&quot;edgeStyle&quot;:&quot;entityRelationEdgeStyle&quot;,&quot;startArrow&quot;:&quot;none&quot;,&quot;endArrow&quot;:&quot;none&quot;,&quot;segment&quot;:10,&quot;curved&quot;:1};fillColor=#f5f5f5;fontColor=#333333;strokeColor=#666666;" vertex="1" parent="6J_XF5Ipo1ecQk5-yDg4-1783">
          <mxGeometry x="240" y="250" width="80" height="20" as="geometry" />
        </mxCell>
      </root>
    </mxGraphModel>
  </diagram>
</mxfile>
